<?xml version="1.0" encoding="UTF-8" standalone="no"?>
<!DOCTYPE svg PUBLIC "-//W3C//DTD SVG 1.1//EN" "http://www.w3.org/Graphics/SVG/1.1/DTD/svg11.dtd">
<svg width="100%" height="100%" viewBox="0 0 1000 637" version="1.1" xmlns="http://www.w3.org/2000/svg" xmlns:xlink="http://www.w3.org/1999/xlink" xml:space="preserve" xmlns:serif="http://www.serif.com/" style="fill-rule:evenodd;clip-rule:evenodd;stroke-linejoin:round;stroke-miterlimit:2;">
    <g transform="matrix(1,0,0,1,-6300,-181)">
        <g id="Artboard7" transform="matrix(1,0,0,0.637,0,181)">
            <rect x="6300" y="0" width="1000" height="1000" style="fill:none;"/>
            <clipPath id="_clip1">
                <rect x="6300" y="0" width="1000" height="1000"/>
            </clipPath>
            <g clip-path="url(#_clip1)">
                <g transform="matrix(2.77362,0,0,4.35419,-6272.65,-2810.62)">
                    <path d="M4809.39,777L4647,777L4590.42,875L4767.81,875L4809.39,777Z"/>
                </g>
                <g transform="matrix(2.77362,0,0,4.35419,-6272.65,-2810.62)">
                    <path d="M4857.89,777L4801.31,875L4861.66,875C4875.18,875 4886.16,864.022 4886.16,850.5L4886.16,801.5C4886.16,787.978 4875.18,777 4861.66,777L4857.89,777Z"/>
                </g>
                <g transform="matrix(2.77362,0,0,4.35419,-6272.65,-2810.62)">
                    <path d="M4598.5,777L4557.44,777C4543.91,777 4532.94,787.978 4532.94,801.5L4532.94,850.5C4532.94,859.135 4547.41,869.084 4554.18,873.432L4598.5,777Z"/>
                </g>
                <g transform="matrix(1,0,0,1.56986,0,-284.144)">
                    <path d="M6654.52,379.74L6888.21,784.508C6900.48,805.769 6922.82,817.631 6945.75,817.555C6968.68,817.631 6991.02,805.769 7003.29,784.508L7291.14,285.936C7309.38,254.345 7298.54,213.889 7266.95,195.65C7235.36,177.41 7194.9,188.251 7176.66,219.842L6945.75,619.797L6714.84,219.842C6712.38,215.593 6709.53,211.719 6706.35,208.24C6701.22,201.566 6694.73,195.767 6686.99,191.3C6655.4,173.061 6614.95,183.901 6596.71,215.492L6308.86,714.064C6290.62,745.655 6301.46,786.111 6333.05,804.35C6364.64,822.59 6405.1,811.749 6423.34,780.158L6654.52,379.74Z" style="fill:url(#_Linear2);"/>
                </g>
            </g>
        </g>
    </g>
    <defs>
        <linearGradient id="_Linear2" x1="0" y1="0" x2="1" y2="0" gradientUnits="userSpaceOnUse" gradientTransform="matrix(1000,0,0,635.112,6300,500)"><stop offset="0" style="stop-color:rgb(38,150,255);stop-opacity:1"/><stop offset="1" style="stop-color:rgb(36,57,122);stop-opacity:1"/></linearGradient>
    </defs>
</svg>
